<mxfile host="65bd71144e">
    <diagram id="ZutYpmVp2iqBed9jJIdY" name="Page-1">
        <mxGraphModel dx="1074" dy="741" grid="1" gridSize="10" guides="1" tooltips="1" connect="1" arrows="1" fold="1" page="1" pageScale="1" pageWidth="827" pageHeight="1169" math="0" shadow="0">
            <root>
                <mxCell id="0"/>
                <mxCell id="1" parent="0"/>
                <mxCell id="11" style="edgeStyle=orthogonalEdgeStyle;rounded=0;html=1;entryX=0.5;entryY=0;entryDx=0;entryDy=0;fontColor=#FFFFFF;" edge="1" parent="1" source="2" target="10">
                    <mxGeometry relative="1" as="geometry">
                        <Array as="points">
                            <mxPoint x="410" y="180"/>
                            <mxPoint x="270" y="180"/>
                        </Array>
                    </mxGeometry>
                </mxCell>
                <mxCell id="12" style="edgeStyle=orthogonalEdgeStyle;rounded=0;html=1;entryX=0.5;entryY=0;entryDx=0;entryDy=0;fontColor=#FFFFFF;" edge="1" parent="1" source="2" target="8">
                    <mxGeometry relative="1" as="geometry">
                        <Array as="points">
                            <mxPoint x="410" y="180"/>
                            <mxPoint x="570" y="180"/>
                        </Array>
                    </mxGeometry>
                </mxCell>
                <mxCell id="13" style="edgeStyle=orthogonalEdgeStyle;rounded=0;html=1;fontColor=#FFFFFF;" edge="1" parent="1" source="2" target="9">
                    <mxGeometry relative="1" as="geometry"/>
                </mxCell>
                <mxCell id="2" value="energy" style="rounded=0;whiteSpace=wrap;html=1;" vertex="1" parent="1">
                    <mxGeometry x="350" y="90" width="120" height="60" as="geometry"/>
                </mxCell>
                <mxCell id="3" value="get number of mass" style="rounded=0;whiteSpace=wrap;html=1;" vertex="1" parent="1">
                    <mxGeometry x="210" y="370" width="120" height="60" as="geometry"/>
                </mxCell>
                <mxCell id="5" value="calculate&amp;nbsp;&lt;br&gt;&lt;span style=&quot;font-family: &amp;#34;lato&amp;#34; , sans-serif ; font-size: 14.6667px ; text-align: left&quot;&gt;&lt;font color=&quot;#ffffff&quot;&gt;E = mcÂ²&lt;/font&gt;&lt;/span&gt;" style="rounded=0;whiteSpace=wrap;html=1;" vertex="1" parent="1">
                    <mxGeometry x="350" y="370" width="120" height="60" as="geometry"/>
                </mxCell>
                <mxCell id="6" value="get number of energy (in&amp;nbsp;&lt;span style=&quot;font-family: &amp;#34;lato&amp;#34; , sans-serif ; font-size: 14.6667px ; text-align: left&quot;&gt;&lt;font color=&quot;#ffffff&quot;&gt;Joules&lt;/font&gt;&lt;/span&gt;)" style="rounded=0;whiteSpace=wrap;html=1;" vertex="1" parent="1">
                    <mxGeometry x="510" y="370" width="120" height="60" as="geometry"/>
                </mxCell>
                <mxCell id="16" style="edgeStyle=orthogonalEdgeStyle;rounded=0;html=1;fontColor=#FFFFFF;" edge="1" parent="1" source="8" target="6">
                    <mxGeometry relative="1" as="geometry"/>
                </mxCell>
                <mxCell id="8" value="output" style="rounded=0;whiteSpace=wrap;html=1;fontColor=#FFFFFF;" vertex="1" parent="1">
                    <mxGeometry x="510" y="230" width="120" height="60" as="geometry"/>
                </mxCell>
                <mxCell id="15" style="edgeStyle=orthogonalEdgeStyle;rounded=0;html=1;fontColor=#FFFFFF;" edge="1" parent="1" source="9" target="5">
                    <mxGeometry relative="1" as="geometry"/>
                </mxCell>
                <mxCell id="9" value="process" style="rounded=0;whiteSpace=wrap;html=1;fontColor=#FFFFFF;" vertex="1" parent="1">
                    <mxGeometry x="350" y="230" width="120" height="60" as="geometry"/>
                </mxCell>
                <mxCell id="14" style="edgeStyle=orthogonalEdgeStyle;rounded=0;html=1;fontColor=#FFFFFF;" edge="1" parent="1" source="10" target="3">
                    <mxGeometry relative="1" as="geometry"/>
                </mxCell>
                <mxCell id="10" value="input" style="rounded=0;whiteSpace=wrap;html=1;fontColor=#FFFFFF;" vertex="1" parent="1">
                    <mxGeometry x="210" y="230" width="120" height="60" as="geometry"/>
                </mxCell>
            </root>
        </mxGraphModel>
    </diagram>
</mxfile>